<svg xmlns="http://www.w3.org/2000/svg" viewBox="0 0 800 440" font-family="ui-monospace,Menlo,monospace">
  <rect width="800" height="440" fill="#0b0b0e"/>
  <!-- téléphone -->
  <rect x="290" y="24" width="220" height="396" rx="28" fill="#101014" stroke="rgba(255,255,255,0.12)"/>
  <rect x="366" y="36" width="68" height="8" rx="4" fill="rgba(255,255,255,0.10)"/>
  <circle cx="400" cy="92" r="26" fill="rgba(232,25,44,0.28)" stroke="rgba(232,25,44,0.55)"/>
  <circle cx="400" cy="92" r="12" fill="#E8192C"/>
  <rect x="344" y="130" width="112" height="11" rx="5.5" fill="rgba(255,255,255,0.85)"/>
  <rect x="360" y="150" width="80" height="8" rx="4" fill="rgba(255,255,255,0.3)"/>
  <!-- trust stat -->
  <rect x="322" y="172" width="156" height="46" rx="12" fill="rgba(232,25,44,0.10)" stroke="rgba(232,25,44,0.3)"/>
  <text x="400" y="196" fill="#E8192C" font-size="18" font-weight="700" text-anchor="middle">12 000+</text>
  <rect x="356" y="202" width="88" height="7" rx="3.5" fill="rgba(255,255,255,0.35)"/>
  <!-- soirées -->
  <g>
    <rect x="316" y="234" width="168" height="34" rx="10" fill="rgba(255,255,255,0.06)"/>
    <rect x="328" y="242" width="20" height="18" rx="5" fill="rgba(232,25,44,0.25)"/>
    <rect x="356" y="244" width="86" height="8" rx="4" fill="rgba(255,255,255,0.55)"/>
    <rect x="356" y="256" width="56" height="6" rx="3" fill="rgba(255,255,255,0.22)"/>
    <rect x="316" y="274" width="168" height="34" rx="10" fill="rgba(255,255,255,0.06)"/>
    <rect x="328" y="282" width="20" height="18" rx="5" fill="rgba(232,25,44,0.25)"/>
    <rect x="356" y="284" width="70" height="8" rx="4" fill="rgba(255,255,255,0.55)"/>
    <rect x="356" y="296" width="64" height="6" rx="3" fill="rgba(255,255,255,0.22)"/>
    <rect x="316" y="314" width="168" height="34" rx="10" fill="rgba(255,255,255,0.06)"/>
    <rect x="328" y="322" width="20" height="18" rx="5" fill="rgba(232,25,44,0.25)"/>
    <rect x="356" y="324" width="92" height="8" rx="4" fill="rgba(255,255,255,0.55)"/>
    <rect x="356" y="336" width="48" height="6" rx="3" fill="rgba(255,255,255,0.22)"/>
    <rect x="316" y="354" width="168" height="34" rx="10" fill="rgba(255,255,255,0.06)"/>
    <rect x="328" y="362" width="20" height="18" rx="5" fill="rgba(251,191,36,0.25)"/>
    <rect x="356" y="364" width="80" height="8" rx="4" fill="rgba(255,255,255,0.55)"/>
    <rect x="356" y="376" width="60" height="6" rx="3" fill="rgba(255,255,255,0.22)"/>
  </g>
  <!-- QR code -->
  <rect x="580" y="140" width="150" height="150" rx="16" fill="#131318" stroke="rgba(255,255,255,0.09)"/>
  <g fill="rgba(255,255,255,0.8)">
    <rect x="600" y="160" width="30" height="30" rx="4"/>
    <rect x="680" y="160" width="30" height="30" rx="4"/>
    <rect x="600" y="240" width="30" height="30" rx="4"/>
    <rect x="644" y="164" width="10" height="10"/>
    <rect x="660" y="180" width="10" height="10"/>
    <rect x="644" y="200" width="10" height="10"/>
    <rect x="664" y="212" width="10" height="10"/>
    <rect x="644" y="230" width="10" height="10"/>
    <rect x="680" y="230" width="10" height="10"/>
    <rect x="696" y="212" width="10" height="10"/>
    <rect x="644" y="252" width="10" height="10"/>
    <rect x="668" y="256" width="10" height="10"/>
    <rect x="692" y="252" width="14" height="14" rx="3"/>
  </g>
  <path d="M576 216 C 540 216, 528 216, 514 216" stroke="rgba(232,25,44,0.55)" stroke-width="2.5" fill="none"/>
  <path d="M524 209 l-12 7 l12 7" fill="none" stroke="rgba(232,25,44,0.55)" stroke-width="2.5"/>
  <!-- lien bio -->
  <rect x="70" y="184" width="180" height="34" rx="12" fill="#131318" stroke="rgba(255,255,255,0.09)"/>
  <text x="86" y="205" fill="rgba(255,255,255,0.55)" font-size="11">yunoapp.eu/p/…</text>
  <path d="M254 201 C 272 201, 278 201, 286 201" stroke="rgba(232,25,44,0.55)" stroke-width="2.5" fill="none"/>
  <path d="M278 194 l12 7 l-12 7" fill="none" stroke="rgba(232,25,44,0.55)" stroke-width="2.5"/>
</svg>
